# AST/ASF file generated using VICON BodyLanguage
# -----------------------------------------------
:version 1.10
:name VICON
:units
  mass 1.0
  length 0.45
  angle deg
:documentation
   .ast/.asf automatically generated from VICON data using
   VICON BodyBuilder and BodyLanguage model FoxedUp or BRILLIANT.MOD
:root
   order TX TY TZ RX RY RZ
   axis XYZ
   position 0 0 0  
   orientation 0 0 0 
:bonedata
  begin
     id 1 
     name lhipjoint
     direction 0.707368 -0.647095 0.284426 
     length 2.60678 
     axis 0 0 0  XYZ
  end
  begin
     id 2 
     name lfemur
     direction 0.34202 -0.939693 0  
     length 6.63812  
     axis 0 0 20  XYZ
    dof rx ry rz
    limits (-160.0 20.0)
           (-70.0 70.0)
           (-60.0 70.0)
  end
  begin
     id 3 
     name ltibia
     direction 0.34202 -0.939693 0   
     length 7.51178   
     axis 0 0 20   XYZ
    dof rx
    limits (-10.0 170.0)
  end
  begin
     id 4 
     name lfoot
     direction 0.121251 -0.333133 0.935051   
     length 1.83716   
     axis -90 7.62852e-016 20   XYZ
    dof rx rz
    limits (-45.0 90.0)
           (-70.0 20.0)
  end
  begin
     id 5 
     name ltoes
     direction 1.53611e-011 -4.21962e-011 1   
     length 0.916133   
     axis -90 7.62852e-016 20   XYZ
    dof rx
    limits (-90.0 20.0)
  end
  begin
     id 6 
     name rhipjoint
     direction -0.692419 -0.660507 0.290321   
     length 2.55385  
     axis 0 0 0  XYZ 
  end
  begin
     id 7 
     name rfemur
     direction -0.34202 -0.939693 0   
     length 7.29079   
     axis 0 0 -20   XYZ
    dof rx ry rz
    limits (-160.0 20.0)
           (-70.0 70.0)
           (-70.0 60.0)
  end
  begin
     id 8 
     name rtibia
     direction -0.34202 -0.939693 0   
     length 7.47143   
     axis 0 0 -20   XYZ
    dof rx
    limits (-10.0 170.0)
 end
 begin
     id 9 
     name rfoot
     direction -0.119907 -0.329441 0.936532   
     length 1.79439  
     axis -90 -7.62852e-016 -20   XYZ
    dof rx rz
    limits (-45.0 90.0)
           (-20.0 70.0)
  end
  begin
     id 10 
     name rtoes
     direction -1.53571e-011 -4.21961e-011 1   
     length 0.896039   
     axis -90 -7.62852e-016 -20   XYZ
    dof rx
    limits (-90.0 20.0)
  end
  begin
     id 11 
     name lowerback
     direction 0.0367721 0.992912 -0.113016   
     length 1.73542   
     axis 0 0 0   XYZ
    dof rx ry rz
    limits (-20.0 45.0)
           (-30.0 30.0)
           (-30.0 30.0)
  end
  begin
     id 12 
     name upperback
     direction -0.000314626 0.990678 0.136227   
     length 1.7514   
     axis 0 0 0   XYZ
    dof rx ry rz
    limits (-20.0 45.0)
           (-30.0 30.0)
           (-30.0 30.0)
  end
  begin
     id 13 
     name thorax
     direction -0.0226159 0.981151 0.191917   
     length 1.71471   
     axis 0 0 0   XYZ
    dof rx ry rz
    limits (-20.0 45.0)
           (-30.0 30.0)
           (-30.0 30.0)
  end
  begin
     id 14 
     name lowerneck
     direction 0.0219333 0.998071 0.0580739   
     length 1.65882   
     axis 0 0 0   XYZ
    dof rx ry rz
    limits (-20.0 45.0)
           (-30.0 30.0)
           (-30.0 30.0)
  end
  begin
     id 15 
     name upperneck
     direction 0.0384529 0.980058 -0.194957   
     length 1.6612   
     axis 0 0 0   XYZ
    dof rx ry rz
    limits (-20.0 45.0)
           (-30.0 30.0)
           (-30.0 30.0)
  end
  begin
     id 16
     name head
     direction 0.00592123 0.997421 -0.0715234  
     length 1.68077  
     axis 0 0 0   XYZ
    dof rx ry rz
    limits (-20.0 45.0)
           (-30.0 30.0)
           (-30.0 30.0)
  end
  begin
     id 17 
     name lclavicle
     direction 0.904803 0.417826 0.0821728  
     length 3.42227  
     axis 0 0 0   XYZ
    dof ry rz
    limits (-20.0 10.0)
           (0.0 20.0)
  end
  begin
     id 18 
     name lhumerus
     direction 1 -4.48965e-011 -2.68786e-027   
     length 5.11878   
     axis -180 -30 -90   XYZ
    dof rx ry rz
    limits (-60.0 90.0)
           (-90.0 90.0)
           (-90.0 90.0)
  end
  begin
     id 19
     name lradius
     direction 1 -4.48965e-011 2.61168e-028   
     length 3.59971   
     axis -180 -30 -90   XYZ
    dof rx
    limits (-10.0 170.0)
  end
  begin
     id 20
     name lwrist
     direction 1 -4.48965e-011 1.58672e-027   
     length 1.79985   
     axis -1.65735e-015 90 90   XYZ
    dof ry
    limits (-180.0 0.0)
 end
  begin
     id 21 
     name lhand
     direction 1 -4.48942e-011 3.17344e-027   
     length 0.62877   
     axis -2.02492e-015 90 90   XYZ
    dof rx rz
    limits (-90.0 90.0)
           (-45.0 45.0)
  end
  begin
     id 22 
     name lfingers
     direction 1 -4.49011e-011 6.34687e-027   
     length 0.506931   
     axis -4.04985e-015 90 90   XYZ
    dof rx
    limits (0.0 90.0)
  end
  begin
     id 23
     name lthumb
     direction 0.707107 -6.34982e-011 0.707107   
     length 0.727854   
     axis -90 45 2.85299e-015   XYZ
    dof rx rz
    limits (-45.0 45.0)
           (-45.0 45.0)
  end
  begin
     id 24 
     name rclavicle
     direction -0.945647 0.32488 0.0143075   
     length 3.52737  
     axis 0 0 0   XYZ 
    dof ry rz
    limits (-10.0 20.0)
           (-20.0 0.0)
  end
  begin
     id 25 
     name rhumerus
     direction -1 -4.48962e-011 1.92182e-027  
     length 5.4902   
     axis -180 30 90   XYZ
    dof rx ry rz
    limits (-90.0 60.0)
           (-90.0 90.0)
           (-90.0 90.0)
  end
  begin
     id 26 
     name rradius
     direction -1 -4.48967e-011 -5.97193e-028   
     length 3.20659   
     axis -180 30 90   XYZ
    dof rx
    limits (-10.0 170.0)
  end
  begin
     id 27 
     name rwrist
     direction -1 -4.48964e-011 1.58672e-027   
     length 1.6033   
     axis -1.65735e-015 -90 -90   XYZ
    dof ry
    limits (-180.0 0.0)
  end
  begin
     id 28
     name rhand
     direction -1 -4.49006e-011 3.17344e-027   
     length 0.691885   
     axis -2.02492e-015 -90 -90   XYZ
    dof rx rz
    limits (-90.0 90.0)
           (-45.0 45.0)
  end
  begin
     id 29
     name rfingers
     direction -1 -4.48908e-011 6.34687e-027   
     length 0.557815   
     axis -4.04985e-015 -90 -90   XYZ
    dof rx
    limits (0.0 90.0)
  end
  begin
     id 30
     name rthumb
     direction -0.707107 -6.34999e-011 0.707107   
     length 0.800915   
     axis -90 -45 -2.85299e-015   XYZ
    dof rx rz
    limits (-45.0 45.0)
           (-45.0 45.0)
  end
:hierarchy
  begin
    root lhipjoint rhipjoint lowerback
    lhipjoint lfemur
    lfemur ltibia
    ltibia lfoot
    lfoot ltoes
    rhipjoint rfemur
    rfemur rtibia
    rtibia rfoot
    rfoot rtoes
    lowerback upperback
    upperback thorax
    thorax lowerneck lclavicle rclavicle
    lowerneck upperneck
    upperneck head
    lclavicle lhumerus
    lhumerus lradius
    lradius lwrist
    lwrist lhand lthumb
    lhand lfingers
    rclavicle rhumerus
    rhumerus rradius
    rradius rwrist
    rwrist rhand rthumb
    rhand rfingers
  end

#!OML:ASF I:\Actors\actors\Patient Classification 1\Patient 1\Session 1\Subject1.ASF
:FULLY-SPECIFIED
:DEGREES
268
root -0.348543 16.5028 6.93632 69.5242 32.8817 -14.2594
lowerback 33.6447 2.33491 3.66957
upperback 8.88141 3.92206 -0.945325
thorax -7.05639 1.80341 -4.31307
lowerneck -5.6522 -0.630838 0.612447
upperneck -23.7163 0.573627 6.48308
head -6.29597 -0.111686 1.95607
rclavicle 2.0276e-014 3.66261e-014
rhumerus 75.1592 6.3814 -62.7419
rradius 51.7056
rwrist 27.7561
rhand -28.7211 -30.3024
rfingers 7.12502
rthumb -2.08232 -60.272
lclavicle 2.0276e-014 3.66261e-014
lhumerus 71.8773 1.30734 70.8903
lradius 56.6378
lwrist -7.23322
lhand -49.9979 -68.437
lfingers 7.12502
lthumb -22.5871 -39.7384
rfemur -77.2937 12.273 21.7365
rtibia 0.618364
rfoot -9.3113 -33.6499
rtoes 24.9266
lfemur -88.3402 24.1794 -20.3396
ltibia -2.79746
lfoot 29.3026 -12.0537
ltoes 56.9703
269
root -0.351527 16.5135 6.93287 69.2168 32.8522 -14.3144
lowerback 33.47 2.34838 3.67118
upperback 8.8981 3.93551 -0.947488
thorax -6.97118 1.814 -4.31392
lowerneck -5.60422 -0.62228 0.523786
upperneck -23.5866 0.605633 6.61436
head -6.26184 -0.0955099 2.01088
rclavicle 3.51849e-014 -4.22914e-014
rhumerus 74.7593 6.54339 -62.7408
rradius 52.0194
rwrist 27.7212
rhand -28.7328 -30.1771
rfingers 7.12502
rthumb -2.09363 -60.1466
lclavicle 3.51849e-014 -4.22914e-014
lhumerus 71.2535 1.23226 70.9424
lradius 56.9628
lwrist -6.84871
lhand -50.0064 -68.372
lfingers 7.12502
lthumb -22.5953 -39.6744
rfemur -76.917 12.3468 21.8271
rtibia 0.472607
rfoot -9.13128 -33.5906
rtoes 24.937
lfemur -88.0529 24.2192 -20.3999
ltibia -2.82585
lfoot 29.4226 -12.2185
ltoes 56.7785
270
root -0.354944 16.5217 6.92995 68.8026 32.6719 -14.5798
lowerback 33.1587 2.48296 3.53839
upperback 8.91994 4.04864 -0.935241
thorax -6.82958 1.87121 -4.2567
lowerneck -5.55149 -0.649769 0.525756
upperneck -23.4399 0.555369 6.61719
head -6.2211 -0.120548 2.01141
rclavicle -1.47101e-014 -3.36443e-014
rhumerus 74.2879 6.75362 -62.6729
rradius 52.4267
rwrist 27.6639
rhand -28.7861 -30.0047
rfingers 7.12502
rthumb -2.14513 -59.9737
lclavicle -1.47101e-014 -3.36443e-014
lhumerus 70.5224 1.14905 71.0556
lradius 57.3811
lwrist -6.54145
lhand -49.9285 -68.2102
lfingers 7.12502
lthumb -22.5204 -39.5035
rfemur -76.5194 12.6772 21.8651
rtibia 0.270848
rfoot -8.9127 -33.5077
rtoes 24.8521
lfemur -87.5528 24.5838 -19.9466
ltibia -2.94656
lfoot 29.1593 -11.7718
ltoes 57.1391
271
root -0.356902 16.5345 6.92408 68.3916 32.5034 -14.7328
lowerback 32.9087 2.53775 3.48593
upperback 8.9226 4.09478 -0.919864
thorax -6.73224 1.89644 -4.21875
lowerneck -5.59797 -0.69075 0.338901
upperneck -23.1678 0.492089 6.70931
head -6.12124 -0.137293 2.07143
rclavicle -1.5704e-014 -4.68138e-014
rhumerus 73.753 7.10137 -62.5103
rradius 52.9631
rwrist 27.331
rhand -28.8959 -30.4742
rfingers 7.12502
rthumb -2.25121 -60.442
lclavicle -1.5704e-014 -4.68138e-014
lhumerus 69.6428 1.08669 71.2496
lradius 57.9426
lwrist -6.37285
lhand -49.8294 -67.9807
lfingers 7.12502
lthumb -22.4254 -39.2626
rfemur -76.045 12.8554 21.8725
rtibia 0.0126425
rfoot -8.65308 -33.4579
rtoes 24.6544
lfemur -87.2278 24.7471 -20.1264
ltibia -2.97975
lfoot 29.2656 -11.6944
ltoes 57.384
272
root -0.359953 16.5513 6.91838 67.9144 32.3293 -14.8137
lowerback 32.4281 2.52574 3.45625
upperback 9.30655 4.04446 -0.796744
thorax -6.75247 1.86148 -4.36559
lowerneck -5.68719 -0.653803 0.0941922
upperneck -22.7887 0.54638 6.84527
head -5.98388 -0.0884288 2.14943
rclavicle -1.49089e-014 8.00108e-014
rhumerus 73.1233 7.61307 -62.3448
rradius 53.6893
rwrist 26.5765
rhand -29.1538 -31.4815
rfingers 7.12502
rthumb -2.50027 -61.4466
lclavicle -1.49089e-014 8.00108e-014
lhumerus 68.6003 1.0906 71.3071
lradius 58.6424
lwrist -6.20973
lhand -49.84 -67.6399
lfingers 7.12502
lthumb -22.4355 -38.9229
rfemur -75.435 12.9723 21.8717
rtibia -0.283426
rfoot -8.40616 -33.4086
rtoes 24.4556
lfemur -86.8234 24.8397 -20.4599
ltibia -3.00862
lfoot 29.4406 -11.8721
ltoes 57.1865
273
root -0.364147 16.5684 6.91235 67.3589 32.0904 -14.9386
lowerback 32.2139 2.49084 3.38997
upperback 9.28933 3.97177 -0.887156
thorax -6.67943 1.83362 -4.39194
lowerneck -5.70221 -0.551586 0.109857
upperneck -22.4665 0.66804 6.81034
head -5.88244 -0.018549 2.12677
rclavicle 7.196e-014 8.94531e-014
rhumerus 72.4079 8.22552 -62.4829
rradius 54.4947
rwrist 25.9633
rhand -29.1451 -31.7506
rfingers 7.12502
rthumb -2.49182 -61.7158
lclavicle 7.196e-014 8.94531e-014
lhumerus 67.4205 1.17102 71.185
lradius 59.4127
lwrist -5.96596
lhand -50.0532 -67.5331
lfingers 7.12502
lthumb -22.6402 -38.841
rfemur -74.7866 13.1576 21.8448
rtibia -0.543957
rfoot -8.24803 -33.3377
rtoes 24.4307
lfemur -86.3816 25.0072 -20.8886
ltibia -3.01694
lfoot 29.7243 -12.1493
ltoes 56.9597
